<?xml version="1.0" encoding="UTF-8" standalone="no"?>
<!-- Creator: CorelDRAW X5 -->

<svg
   style="fill-rule:evenodd;text-rendering:geometricPrecision;image-rendering:optimizeQuality;clip-rule:evenodd;shape-rendering:geometricPrecision"
   xml:space="preserve"
   viewBox="0 0 11317 11225"
   version="1.1"
   id="svg100"
   sodipodi:docname="full_base1412207692.svg"
   inkscape:version="1.2.2 (732a01da63, 2022-12-09)"
   xmlns:inkscape="http://www.inkscape.org/namespaces/inkscape"
   xmlns:sodipodi="http://sodipodi.sourceforge.net/DTD/sodipodi-0.dtd"
   xmlns="http://www.w3.org/2000/svg"
   xmlns:svg="http://www.w3.org/2000/svg"><sodipodi:namedview
   id="namedview102"
   pagecolor="#ffffff"
   bordercolor="#000000"
   borderopacity="0.25"
   inkscape:showpageshadow="2"
   inkscape:pageopacity="0.0"
   inkscape:pagecheckerboard="0"
   inkscape:deskcolor="#d1d1d1"
   showgrid="false"
   showguides="true"
   inkscape:zoom="0.18298441"
   inkscape:cx="3082.2298"
   inkscape:cy="4415.6767"
   inkscape:window-width="3840"
   inkscape:window-height="2054"
   inkscape:window-x="-11"
   inkscape:window-y="-11"
   inkscape:window-maximized="1"
   inkscape:current-layer="svg100"><sodipodi:guide
     position="5989.6661,3303.1836"
     orientation="0,-1"
     id="guide380"
     inkscape:locked="false" /><sodipodi:guide
     position="5657.3362,3098.3756"
     orientation="1,0"
     id="guide382"
     inkscape:locked="false" /></sodipodi:namedview>
 <defs
   id="defs55">
  <style
   type="text/css"
   id="style53">
    .str0 {stroke:black;stroke-width:35.28}
    .str2 {stroke:black;stroke-width:35.28}
    .str3 {stroke:black;stroke-width:35.82}
    .str1 {stroke:black;stroke-width:141.1}
    .fil0 {fill:none}
    .fil2 {fill:black}
    .fil1 {fill:#E6E6E6}
    .fil3 {fill:white}
  </style>
 
  
  
  
  
  
  
  
  
  
  
  
  
  
  
  
  
  
  
  
  
  
  
 </defs>
 <path
   class="fil1 str1"
   d="M 2047,4321 100,2374 C 1523,951 3488,71 5658,71 7828,71 9794,951 11216,2374 L 9269,4321 C 8345,3397 7068,2825 5658,2825 4248,2825 2971,3397 2047,4321 Z"
   id="path59" /><circle
   cy="7932"
   cx="5658"
   r="3222"
   class="fil1 str1"
   id="circle61" /><polygon
   id="circle"
   points="5895,5526 5995,5663 6130,5561 6216,5707 6360,5618 6431,5772 6584,5698 6639,5858 6798,5800 6838,5964 7002,5922 7025,6089 7192,6063 7199,6232 7368,6222 7358,6391 7527,6398 7501,6565 7669,6589 7626,6753 7791,6792 7732,6951 7892,7007 7818,7159 7972,7230 7884,7375 8030,7460 7928,7595 8064,7695 7950,7819 8076,7932 7950,8045 8064,8169 7928,8269 8030,8404 7884,8489 7972,8634 7818,8705 7892,8857 7732,8913 7791,9072 7626,9111 7669,9275 7501,9299 7527,9466 7358,9473 7368,9642 7199,9632 7192,9801 7025,9775 7002,9942 6838,9900 6798,10064 6639,10006 6584,10166 6431,10092 6360,10246 6216,10157 6130,10303 5995,10201 5895,10338 5771,10223 5658,10350 5546,10223 5421,10338 5322,10201 5187,10303 5101,10157 4956,10246 4885,10092 4733,10166 4677,10006 4518,10064 4479,9900 4315,9942 4292,9775 4124,9801 4118,9632 3949,9642 3958,9473 3789,9466 3816,9299 3648,9275 3690,9111 3526,9072 3584,8913 3424,8857 3498,8705 3345,8634 3433,8489 3287,8404 3389,8269 3252,8169 3367,8045 3240,7932 3367,7819 3252,7695 3389,7595 3287,7460 3433,7375 3345,7230 3498,7159 3424,7007 3584,6951 3526,6792 3690,6753 3648,6589 3816,6565 3789,6398 3958,6391 3949,6222 4118,6232 4124,6063 4292,6089 4315,5922 4479,5964 4518,5800 4677,5858 4733,5698 4885,5772 4956,5618 5101,5707 5187,5561 5322,5663 5421,5526 5546,5641 5658,5514 5771,5641 "
   class="fil3 str0" />
<line
   y1="1221.6932"
   x2="2873.7183"
   x1="3119.4858"
   y2="577.7746"
   class="fil0 str2 line33"
   id="line33_1"
   inkscape:transform-center-x="2662.8852"
   inkscape:transform-center-y="-7012.4599" /><line
   y1="755.77545"
   x2="5668.1353"
   x1="5668.4912"
   y2="66.549202"
   class="fil0 str2 line33"
   id="line33_2"
   inkscape:transform-center-x="-8.8259816"
   inkscape:transform-center-y="-7501.0315" /><line
   y1="1274.1178"
   x2="8589.8975"
   x1="8333.501"
   y2="634.35687"
   class="fil0 str2 line33"
   id="line33_3"
   inkscape:transform-center-x="-2802.212"
   inkscape:transform-center-y="-6957.9565" /><line
   y1="1447.7611"
   x2="2292.6052"
   x1="2589.3872"
   y2="825.70538"
   class="fil0 str2 line25"
   id="line25_1"
   inkscape:transform-center-x="3218.4911"
   inkscape:transform-center-y="-6775.4605" /><line
   y1="854.01917"
   x2="4362.6987"
   x1="4477.7197"
   y2="174.45818"
   class="fil0 str2 line25"
   id="line25_2"
   inkscape:transform-center-x="1239.2781"
   inkscape:transform-center-y="-7397.9551" /><line
   y1="855.34967"
   x2="6962.5449"
   x1="6849.1743"
   y2="175.51144"
   class="fil0 str2 line25"
   id="line25_3"
   inkscape:transform-center-x="-1246.3724"
   inkscape:transform-center-y="-7396.7632" /><line
   y1="1505.5348"
   x2="9154.418"
   x1="8848.3945"
   y2="887.97327"
   class="fil0 str2 line25"
   id="line25_4"
   inkscape:transform-center-x="-3341.9191"
   inkscape:transform-center-y="-6715.4397" /><path
   id="arrow25_1"
   class="fil2 str3 arrow25"
   d="M 3310.9498,3384.4682 C 2772.7748,2046.1494 2388.5691,1025.285 2388.5691,1025.285 c 0,0 554.113,940.5615 1258.6322,2198.0251 -117.6269,50.9227 -230.4965,105.971 -336.2515,161.1581 z"
   sodipodi:nodetypes="cccc"
   inkscape:transform-center-x="2625.1988"
   inkscape:transform-center-y="-5686.6419" /><path
   id="arrow25_2"
   class="fil2 str3 arrow25"
   d="M 4638.724,2917.2232 C 4488.8802,1482.5538 4399.8799,395.4213 4399.8799,395.4213 c 0,0 274.4303,1056.5913 606.4298,2459.2097 -127.0902,16.6523 -250.7393,38.5784 -367.5857,62.5922 z"
   sodipodi:nodetypes="cccc"
   inkscape:transform-center-x="939.9892"
   inkscape:transform-center-y="-6235.1962" /><path
   id="arrow25_3"
   class="fil2 str3 arrow25"
   d="M 6322.9159,2862.5841 C 6651.1121,1457.943 6922.9973,401.60184 6922.9973,401.60184 c 0,0 -86.6775,1088.20226 -232.2653,2522.20586 -125.5364,-25.8812 -249.5483,-45.6524 -367.8161,-61.2236 z"
   sodipodi:nodetypes="cccc"
   inkscape:transform-center-x="-979.8726"
   inkscape:transform-center-y="-6228.8137" /><path
   id="arrow25_4"
   class="fil2 str3 arrow25"
   d="m 7760.0715,3279.4998 c 723.5975,-1247.8525 1291.749,-2178.9713 1291.749,-2178.9713 0,0 -400.2884,1015.6114 -957.7804,2344.8084 -112.5302,-61.3693 -225.3841,-116.4495 -333.9686,-165.8371 z"
   sodipodi:nodetypes="cccc"
   inkscape:transform-center-x="-2762.862"
   inkscape:transform-center-y="-5618.5858" /><path
   id="arrow33_1"
   class="fil2 str3 arrow33"
   d="M 3683.0625,3210.6352 C 3254.8768,1833.1788 2954.4843,784.58796 2954.4843,784.58796 c 0,0 476.2371,982.29094 1076.7609,2292.60894 -121.3598,41.2436 -238.3112,86.9842 -348.1827,133.4383 z"
   sodipodi:nodetypes="cccc"
   inkscape:transform-center-x="2150.2192"
   inkscape:transform-center-y="-5893.9069" /><path
   id="arrow33_2"
   class="fil2 str3 arrow33"
   d="m 5484.6199,2819.3157 c 92.1579,-1439.5264 186.1908,-2526.23526 186.1908,-2526.23526 0,0 93.8931,1087.60346 186.6857,2525.98856 -128.0854,-4.8331 -253.6599,-3.8911 -372.8765,0.2467 z"
   sodipodi:nodetypes="cccc"
   inkscape:transform-center-x="-27.9742"
   inkscape:transform-center-y="-6335.3204" /><path
   id="arrow33_3"
   class="fil2 str3 arrow33"
   d="M 7391.8571,3127.6813 C 8015.3641,1826.9245 8508.7434,854.11659 8508.7434,854.11659 c 0,0 -319.407,1043.87571 -770.9406,2412.69981 -116.9964,-52.3552 -233.8224,-98.4154 -345.9457,-139.1351 z"
   sodipodi:nodetypes="cccc"
   inkscape:transform-center-x="-2307.2163"
   inkscape:transform-center-y="-5831.052" /><line
   y1="6835.877"
   x2="3031.1917"
   x1="4012.3877"
   y2="6187.625"
   class="fil0 str3 marker25"
   id="marker25_1"
   inkscape:transform-center-y="-1411.3406"
   inkscape:transform-center-x="2136.2103" /><line
   y1="6095.3042"
   x2="4474.9761"
   x1="4916.873"
   y2="5005.4863"
   class="fil0 str3 marker25"
   id="marker25_2"
   inkscape:transform-center-y="-2372.6963"
   inkscape:transform-center-x="962.07537" /><line
   y1="6070.8491"
   x2="6739.7744"
   x1="6335.6978"
   y2="4966.4502"
   class="fil0 str3 marker25"
   id="marker25_3"
   inkscape:transform-center-y="-2404.4419"
   inkscape:transform-center-x="-879.73616" /><line
   y1="6833.6724"
   x2="8282.4795"
   x1="7302.1538"
   y2="6184.106"
   class="fil0 str3 marker25"
   id="marker25_4"
   inkscape:transform-center-y="-1414.2024"
   inkscape:transform-center-x="-2134.3167" /><line
   y1="6473.8237"
   x2="3522.5435"
   x1="4320.2041"
   y2="5609.6978"
   class="fil0 str3 marker33"
   id="marker33_1"
   inkscape:transform-center-y="-1881.3308"
   inkscape:transform-center-x="1736.6262" /><line
   y1="5950.7817"
   x2="5671.2822"
   x1="5666.3208"
   y2="4774.792"
   class="fil0 str3 marker33"
   id="marker33_2"
   inkscape:transform-center-y="-2560.3047"
   inkscape:transform-center-x="-10.801534" /><line
   y1="6538.2183"
   x2="7899.6953"
   x1="7062.3511"
   y2="5712.4878"
   class="fil0 str3 marker33"
   id="marker33_3"
   inkscape:transform-center-y="-1797.7385"
   inkscape:transform-center-x="-1823.0232" /></svg>
